<?xml version="1.0" encoding="UTF-8" standalone="no"?>
<svg
   xmlns:dc="http://purl.org/dc/elements/1.1/"
   xmlns:cc="http://creativecommons.org/ns#"
   xmlns:rdf="http://www.w3.org/1999/02/22-rdf-syntax-ns#"
   xmlns:svg="http://www.w3.org/2000/svg"
   xmlns="http://www.w3.org/2000/svg"
   viewBox="0 0 1165.4933 305.66666"
   height="305.66666"
   width="1165.4933"
   xml:space="preserve"
   id="svg2"
   version="1.1"><metadata
     id="metadata8"><rdf:RDF><cc:Work
         rdf:about=""><dc:format>image/svg+xml</dc:format><dc:type
           rdf:resource="http://purl.org/dc/dcmitype/StillImage" /></cc:Work></rdf:RDF></metadata><defs
     id="defs6" /><g
     transform="matrix(1.3333333,0,0,-1.3333333,0,305.66667)"
     id="g10"><g
       transform="scale(0.1)"
       id="g12"><path
         id="path14"
         style="fill:#1f3862;fill-opacity:1;fill-rule:nonzero;stroke:none"
         d="m 237.832,1932.74 h 96.121 c 32.363,0 58.297,8.91 77.793,26.76 19.481,17.83 29.234,40.95 29.234,69.36 0,21.8 -7.109,39.15 -21.308,52.03 -14.211,12.88 -34.188,19.32 -59.949,19.32 h -93.157 z m -120.898,306.21 h 293.324 c 31.047,0 59.461,-4.81 85.226,-14.37 25.766,-9.58 47.719,-22.96 65.899,-40.14 18.164,-17.19 32.363,-37.65 42.609,-61.44 10.238,-23.78 15.363,-50.21 15.363,-79.27 0,-27.1 -4.136,-52.87 -12.386,-77.3 -8.274,-24.45 -19.668,-46.74 -34.192,-66.89 -14.539,-20.16 -32.207,-37.66 -53.015,-52.52 -20.813,-14.87 -43.449,-26.6 -67.883,-35.18 L 566.832,1573.02 H 384.492 L 284.402,1794 H 214.047 L 174.41,1573.02 H 0 l 116.934,665.93" /><path
         id="path16"
         style="fill:#1f3862;fill-opacity:1;fill-rule:nonzero;stroke:none"
         d="m 763.035,1729.59 c 0,-15.21 5.113,-27.1 15.363,-35.68 10.235,-8.59 24.606,-12.87 43.106,-12.87 22.449,0 42.117,7.26 58.965,21.79 16.844,14.53 27.25,33.36 31.215,56.49 l 3.964,21.8 c -11.246,1.98 -22.468,3.63 -33.695,4.95 -11.238,1.32 -22.465,1.98 -33.691,1.98 -25.114,0 -45.586,-5.44 -61.442,-16.34 -15.851,-10.91 -23.785,-24.95 -23.785,-42.12 z M 599.531,1706.8 c 0,27.08 5.602,51.68 16.848,73.83 11.223,22.12 27.25,40.95 48.059,56.48 20.812,15.52 45.91,27.58 75.312,36.17 29.391,8.58 62.59,12.88 99.59,12.88 14.527,0 29.562,-0.66 45.094,-1.98 15.511,-1.33 30.875,-3.31 46.078,-5.95 l 0.992,5.95 c 1.312,5.28 1.98,9.57 1.98,12.88 0,14.53 -6.937,26.59 -20.808,36.17 -13.875,9.57 -32.051,14.37 -54.5,14.37 -22.473,0 -46.258,-2.32 -71.356,-6.94 -25.109,-4.62 -51.871,-11.56 -80.265,-20.8 l -28.739,119.91 c 39.641,11.88 76.797,20.8 111.485,26.75 34.683,5.94 69.523,8.92 104.547,8.92 29.726,0 56.976,-3.97 81.754,-11.9 24.778,-7.92 46.078,-18.99 63.918,-33.19 17.84,-14.22 31.54,-31.56 41.12,-52.03 9.57,-20.48 14.37,-42.95 14.37,-67.38 0,-7.28 -0.34,-14.37 -0.99,-21.31 -0.67,-6.93 -1.66,-13.38 -2.97,-19.32 l -26.76,-149.64 c -0.66,-2.65 -0.99,-4.79 -0.99,-6.44 0,-1.66 0,-3.14 0,-4.46 0,-5.29 1.81,-9.59 5.45,-12.88 3.62,-3.32 8.75,-4.96 15.36,-4.96 7.26,0 12.55,0.33 15.86,1 v -123.88 c -13.23,-2.63 -26.26,-4.61 -39.14,-5.94 -12.89,-1.32 -25.94,-1.98 -39.15,-1.98 -25.762,0 -47.907,4.8 -66.391,14.36 -18.508,9.57 -32.379,22.95 -41.621,40.14 -21.152,-18.5 -44.938,-32.21 -71.355,-41.13 -26.43,-8.91 -53.18,-13.37 -80.266,-13.37 -23.129,0 -44.59,3.81 -64.41,11.39 -19.821,7.59 -37.008,17.84 -51.532,30.72 -14.539,12.88 -25.933,28.24 -34.191,46.08 -8.266,17.84 -12.383,36.99 -12.383,57.48" /><path
         id="path18"
         style="fill:#1f3862;fill-opacity:1;fill-rule:nonzero;stroke:none"
         d="m 1215.91,2178.5 c 0,15.86 2.98,30.72 8.92,44.59 5.95,13.88 14.03,25.92 24.28,36.17 10.24,10.24 22.3,18.34 36.17,24.28 13.88,5.95 28.74,8.92 44.59,8.92 25.1,0 45.42,-7.93 60.95,-23.78 15.51,-15.86 23.29,-36.35 23.29,-61.45 0,-15.85 -2.98,-30.71 -8.92,-44.59 -5.95,-13.87 -14.05,-25.93 -24.28,-36.17 -10.25,-10.25 -22.3,-18.33 -36.17,-24.28 -13.88,-5.94 -28.74,-8.92 -44.59,-8.92 -25.12,0 -45.43,7.93 -60.95,23.79 -15.53,15.85 -23.29,36.32 -23.29,61.44 z m -8.92,-114.96 h 174.41 l -86.21,-490.52 h -174.41 l 86.21,490.52" /><path
         id="path20"
         style="fill:#1f3862;fill-opacity:1;fill-rule:nonzero;stroke:none"
         d="m 1562.74,1741.48 c -0.66,-3.31 -1.16,-6.28 -1.49,-8.92 -0.34,-2.64 -0.49,-4.95 -0.49,-6.93 0,-8.6 2.63,-15.04 7.93,-19.33 5.27,-4.3 12.54,-6.44 21.8,-6.44 12.54,0 24.77,1 36.66,2.97 l 6.94,-131.79 c -17.84,-3.3 -35.67,-5.78 -53.51,-7.44 -17.84,-1.64 -34.36,-2.47 -49.55,-2.47 -45.59,0 -81.6,12.04 -108.02,36.16 -26.43,24.12 -39.64,56.32 -39.64,96.62 0,12.55 1,25.43 2.98,38.65 l 96.12,538.1 h 174.41 l -94.14,-529.18" /><path
         id="path22"
         style="fill:#1f3862;fill-opacity:1;fill-rule:nonzero;stroke:none"
         d="m 2439.73,1948.59 c 0,45.59 -14.54,82.25 -43.6,110 -29.08,27.75 -68.38,41.62 -117.93,41.62 h -64.41 l -68.38,-388.46 h 81.26 c 31.04,0 59.61,5.78 85.72,17.35 26.09,11.54 48.56,27.74 67.39,48.55 18.82,20.81 33.52,45.74 44.09,74.82 10.56,29.06 15.86,61.1 15.86,96.12 z m -383.5,290.36 h 261.61 c 46.24,0 88.35,-6.62 126.35,-19.82 37.98,-13.23 70.36,-31.88 97.11,-55.99 26.76,-24.13 47.4,-53.19 61.94,-87.21 14.52,-34.03 21.8,-71.84 21.8,-113.47 0,-58.14 -9.59,-111.15 -28.74,-159.04 -19.17,-47.91 -46.08,-88.87 -80.76,-122.88 -34.69,-34.04 -76.15,-60.45 -124.37,-79.28 -48.23,-18.83 -101.74,-28.24 -160.54,-28.24 h -291.34 l 116.94,665.93" /><path
         id="path24"
         style="fill:#1f3862;fill-opacity:1;fill-rule:nonzero;stroke:none"
         d="m 2936.21,1947.6 c -21.16,0 -40.8,-6.78 -58.97,-20.31 -18.18,-13.55 -30.89,-31.56 -38.15,-54.01 h 166.48 v 17.84 c -2.65,16.5 -10.08,30.05 -22.29,40.63 -12.24,10.56 -27.92,15.85 -47.07,15.85 z m -111.99,-176.39 c 0,-6.61 0.99,-13.22 2.98,-19.82 5.28,-18.5 17,-33.54 35.18,-45.09 18.16,-11.57 40.13,-17.34 65.9,-17.34 39.64,0 81.91,13.21 126.84,39.64 l 52.52,-112.97 c -70.7,-36.34 -140.39,-54.5 -209.09,-54.5 -37.01,0 -70.53,4.95 -100.59,14.86 -30.06,9.91 -55.66,24.11 -76.79,42.61 -21.16,18.49 -37.51,40.46 -49.06,65.9 -11.56,25.43 -17.34,54.01 -17.34,85.72 0,44.92 7.43,86.05 22.3,123.37 14.86,37.32 35.5,69.53 61.93,96.62 26.42,27.08 57.97,48.06 94.64,62.93 36.67,14.87 76.8,22.3 120.4,22.3 30.38,0 58.79,-5.13 85.22,-15.36 26.42,-10.25 49.06,-24.28 67.89,-42.12 18.83,-17.83 33.69,-38.99 44.59,-63.42 10.9,-24.45 16.35,-51.2 16.35,-80.27 0,-34.36 -4.96,-68.72 -14.86,-103.06 h -329.01" /><path
         id="path26"
         style="fill:#1f3862;fill-opacity:1;fill-rule:nonzero;stroke:none"
         d="m 3375.2,1741.48 c -0.66,-3.31 -1.16,-6.28 -1.48,-8.92 -0.35,-2.64 -0.5,-4.95 -0.5,-6.93 0,-8.6 2.63,-15.04 7.93,-19.33 5.28,-4.3 12.54,-6.44 21.8,-6.44 12.54,0 24.77,1 36.66,2.97 l 6.94,-131.79 c -17.83,-3.3 -35.67,-5.78 -53.51,-7.44 -17.84,-1.64 -34.36,-2.47 -49.55,-2.47 -45.58,0 -81.6,12.04 -108.02,36.16 -26.43,24.12 -39.64,56.32 -39.64,96.62 0,12.55 1,25.43 2.98,38.65 l 96.12,538.1 h 174.42 l -94.15,-529.18" /><path
         id="path28"
         style="fill:#1f3862;fill-opacity:1;fill-rule:nonzero;stroke:none"
         d="m 3563.48,2178.5 c 0,15.86 2.98,30.72 8.92,44.59 5.94,13.88 14.03,25.92 24.28,36.17 10.23,10.24 22.29,18.34 36.17,24.28 13.87,5.95 28.74,8.92 44.59,8.92 25.1,0 45.42,-7.93 60.94,-23.78 15.52,-15.86 23.29,-36.35 23.29,-61.45 0,-15.85 -2.97,-30.71 -8.92,-44.59 -5.94,-13.87 -14.04,-25.93 -24.27,-36.17 -10.25,-10.25 -22.3,-18.33 -36.18,-24.28 -13.87,-5.94 -28.73,-8.92 -44.59,-8.92 -25.11,0 -45.42,7.93 -60.94,23.79 -15.53,15.85 -23.29,36.32 -23.29,61.44 z m -8.92,-114.96 h 174.41 l -86.21,-490.52 h -174.41 l 86.21,490.52" /><path
         id="path30"
         style="fill:#1f3862;fill-opacity:1;fill-rule:nonzero;stroke:none"
         d="m 4055,1573.02 h -159.55 l -110.99,490.52 h 170.45 l 49.54,-286.38 149.64,286.38 H 4339.4 L 4055,1573.02" /><path
         id="path32"
         style="fill:#1f3862;fill-opacity:1;fill-rule:nonzero;stroke:none"
         d="m 4558.39,1947.6 c -21.15,0 -40.8,-6.78 -58.96,-20.31 -18.18,-13.55 -30.89,-31.56 -38.16,-54.01 h 166.49 v 17.84 c -2.65,16.5 -10.08,30.05 -22.3,40.63 -12.23,10.56 -27.92,15.85 -47.07,15.85 z m -111.98,-176.39 c 0,-6.61 1,-13.22 2.98,-19.82 5.27,-18.5 17,-33.54 35.18,-45.09 18.16,-11.57 40.13,-17.34 65.89,-17.34 39.64,0 81.92,13.21 126.85,39.64 l 52.52,-112.97 c -70.7,-36.34 -140.39,-54.5 -209.09,-54.5 -37.01,0 -70.53,4.95 -100.59,14.86 -30.07,9.91 -55.66,24.11 -76.8,42.61 -21.15,18.49 -37.5,40.46 -49.05,65.9 -11.57,25.43 -17.34,54.01 -17.34,85.72 0,44.92 7.43,86.05 22.29,123.37 14.87,37.32 35.51,69.53 61.94,96.62 26.41,27.08 57.98,48.06 94.64,62.93 36.67,14.87 76.79,22.3 120.4,22.3 30.38,0 58.79,-5.13 85.22,-15.36 26.42,-10.25 49.05,-24.28 67.88,-42.12 18.83,-17.83 33.69,-38.99 44.6,-63.42 10.9,-24.45 16.35,-51.2 16.35,-80.27 0,-34.36 -4.95,-68.72 -14.86,-103.06 h -329.01" /><path
         id="path34"
         style="fill:#1f3862;fill-opacity:1;fill-rule:nonzero;stroke:none"
         d="m 4880.46,2063.54 h 130.8 l 11.9,-59.45 c 19.15,21.13 40.78,37.65 64.91,49.55 24.1,11.89 50.04,17.83 77.78,17.83 9.92,0 20.82,-0.99 32.71,-2.97 11.89,-1.98 23.45,-4.63 34.69,-7.93 l -43.61,-136.75 c -9.25,3.3 -19.49,5.6 -30.72,6.94 -11.24,1.31 -20.81,1.98 -28.74,1.98 -29.73,0 -55.17,-8.77 -76.3,-26.26 -21.15,-17.52 -34.36,-40.8 -39.64,-69.87 l -45.58,-263.59 h -174.42 l 86.22,490.52" /><path
         id="path36"
         style="fill:#1f3862;fill-opacity:1;fill-rule:nonzero;stroke:none"
         d="M 5495.85,1513.56 C 5436.39,1407.86 5361.4,1355 5270.9,1355 c -13.22,0 -27.25,0.84 -42.12,2.48 -14.86,1.66 -29.88,4.8 -45.08,9.41 l 30.72,134.78 c 19.15,-5.28 36.98,-7.93 53.5,-7.93 17.18,0 32.54,4.46 46.09,13.38 13.53,8.92 25.92,23.28 37.16,43.1 l 16.84,30.73 -111.97,482.59 h 170.44 l 49.55,-286.38 149.64,286.38 h 185.31 l -315.13,-549.98" /><path
         id="path38"
         style="fill:#1f3862;fill-opacity:1;fill-rule:nonzero;stroke:none"
         d="m 6596.81,1613.65 c -83.24,-35.03 -168.14,-52.52 -254.69,-52.52 -49.54,0 -94.14,6.61 -133.78,19.82 -39.63,13.2 -73.33,32.03 -101.07,56.48 -27.74,24.43 -49.23,53.51 -64.41,87.2 -15.21,33.7 -22.8,71.35 -22.8,112.98 0,59.45 10.24,114.45 30.73,164.99 20.46,50.54 48.71,94.14 84.72,130.81 36,36.66 78.78,65.4 128.33,86.22 49.55,20.8 103.39,31.21 161.53,31.21 86.54,0 171.1,-22.14 253.69,-66.4 l -76.31,-123.87 c -27.75,15.19 -56.49,27.58 -86.21,37.16 -29.73,9.57 -58.81,14.38 -87.21,14.38 -34.35,0 -65.74,-6.3 -94.14,-18.84 -28.41,-12.55 -52.86,-30.06 -73.33,-52.52 -20.49,-22.46 -36.34,-49.39 -47.57,-80.76 -11.24,-31.39 -16.84,-65.58 -16.84,-102.56 0,-23.79 4.12,-45.59 12.39,-65.41 8.25,-19.82 20.14,-36.66 35.67,-50.54 15.51,-13.87 33.85,-24.62 54.99,-32.2 21.15,-7.6 44.6,-11.4 70.36,-11.4 13.88,0 27.26,1.14 40.14,3.47 12.88,2.31 24.93,5.11 36.17,8.42 l 21.8,120.9 H 6345.1 l 22.8,131.79 h 291.33 l -62.42,-348.81" /><path
         id="path40"
         style="fill:#1f3862;fill-opacity:1;fill-rule:nonzero;stroke:none"
         d="m 6739.5,2063.54 h 130.8 l 11.89,-59.45 c 19.15,21.13 40.78,37.65 64.91,49.55 24.11,11.89 50.04,17.83 77.79,17.83 9.91,0 20.81,-0.99 32.7,-2.97 11.9,-1.98 23.45,-4.63 34.69,-7.93 l -43.6,-136.75 c -9.26,3.3 -19.5,5.6 -30.73,6.94 -11.24,1.31 -20.81,1.98 -28.74,1.98 -29.72,0 -55.16,-8.77 -76.29,-26.26 -21.16,-17.52 -34.37,-40.8 -39.64,-69.87 l -45.59,-263.59 h -174.41 l 86.22,490.52" /><path
         id="path42"
         style="fill:#1f3862;fill-opacity:1;fill-rule:nonzero;stroke:none"
         d="m 7244.88,1784.09 c 0,-27.09 6.94,-48.55 20.81,-64.41 13.88,-15.86 33.36,-23.78 58.47,-23.78 16.51,0 31.86,3.96 46.08,11.89 14.2,7.93 26.42,18.98 36.67,33.19 10.23,14.2 18.33,30.73 24.28,49.56 5.94,18.82 8.91,39.14 8.91,60.94 0,27.75 -7.11,49.54 -21.31,65.4 -14.21,15.86 -33.85,23.78 -58.95,23.78 -16.52,0 -31.72,-3.96 -45.59,-11.89 -13.87,-7.93 -25.93,-19 -36.17,-33.2 -10.25,-14.21 -18.33,-30.88 -24.28,-50.04 -5.94,-19.17 -8.92,-39.64 -8.92,-61.44 z m -178.37,-13.87 c 0,43.6 7.59,84.06 22.79,121.39 15.19,37.32 36.66,69.7 64.42,97.12 27.74,27.4 60.6,48.71 98.59,63.91 37.99,15.2 79.77,22.8 125.36,22.8 36.33,0 69.2,-4.96 98.6,-14.87 29.39,-9.91 54.51,-24.12 75.32,-42.61 20.81,-18.5 36.99,-40.48 48.55,-65.9 11.55,-25.44 17.35,-54.01 17.35,-85.72 0,-43.6 -7.6,-84.07 -22.8,-121.39 -15.2,-37.33 -36.66,-69.71 -64.41,-97.11 -27.75,-27.43 -60.62,-48.73 -98.61,-63.93 -37.98,-15.18 -79.76,-22.78 -125.35,-22.78 -36.33,0 -69.22,4.95 -98.6,14.86 -29.4,9.91 -54.5,24.11 -75.31,42.61 -20.81,18.49 -37,40.46 -48.56,65.9 -11.57,25.43 -17.34,54.01 -17.34,85.72" /><path
         id="path44"
         style="fill:#1f3862;fill-opacity:1;fill-rule:nonzero;stroke:none"
         d="m 8111.97,1573.02 h -130.8 l -12.89,52.52 c -21.15,-20.49 -45.09,-36.34 -71.84,-47.57 -26.76,-11.22 -55.34,-16.84 -85.72,-16.84 -25.12,0 -47.91,3.96 -68.38,11.89 -20.48,7.93 -38.16,18.98 -53.02,33.19 -14.86,14.2 -26.42,31.05 -34.68,50.54 -8.27,19.48 -12.39,41.13 -12.39,64.91 0,17.84 1.64,36 4.96,54.51 l 50.54,287.37 h 174.4 l -48.55,-276.48 c -0.67,-3.31 -1.16,-7.27 -1.49,-11.88 -0.34,-4.63 -0.49,-8.6 -0.49,-11.9 0,-19.17 5.45,-34.03 16.35,-44.59 10.9,-10.58 25.92,-15.86 45.09,-15.86 24.44,0 44.91,8.09 61.44,24.28 16.5,16.19 27.08,37.82 31.71,64.91 l 48.56,271.52 h 174.4 l -87.2,-490.52" /><path
         id="path46"
         style="fill:#1f3862;fill-opacity:1;fill-rule:nonzero;stroke:none"
         d="m 8563.84,1852.47 c 0,23.78 -7.11,43.1 -21.31,57.97 -14.2,14.87 -32.2,22.3 -54,22.3 -23.13,0 -43.28,-7.6 -60.45,-22.79 -17.19,-15.21 -28.42,-36.67 -33.69,-64.42 l -7.93,-45.58 c -0.66,-4.63 -1.16,-9.09 -1.48,-13.38 -0.35,-4.3 -0.5,-8.42 -0.5,-12.39 0,-21.15 6.27,-38.32 18.83,-51.53 12.53,-13.22 29.06,-19.82 49.55,-19.82 33.02,0 59.78,13.71 80.26,41.13 20.47,27.41 30.72,63.57 30.72,108.51 z m -301.25,211.07 h 130.8 l 14.87,-44.59 c 41.62,37.66 89.84,56.49 144.68,56.49 58.79,0 104.88,-17.84 138.25,-53.52 33.35,-35.67 50.04,-84.9 50.04,-147.65 0,-45.58 -6.45,-87.55 -19.33,-125.85 -12.88,-38.32 -30.71,-71.35 -53.51,-99.1 -22.79,-27.75 -50.21,-49.39 -82.25,-64.91 -32.05,-15.52 -66.89,-23.28 -104.54,-23.28 -25.12,0 -48.41,4.3 -69.87,12.88 -21.48,8.58 -39.49,21.13 -54.01,37.65 l -43.6,-244.77 h -174.41 l 122.88,696.65" /><path
         id="path48"
         style="fill:#1f3862;fill-opacity:1;fill-rule:nonzero;stroke:none"
         d="m 2964.06,440.641 146.09,-69.012 h -226.86 v -46.527 h 228.35 L 3000.68,269.66 h -117.39 v -46.172 h 117.39 l 138.94,-69.008 h 104.14 l -146.41,69.008 h 227.58 v 46.172 h -227.26 l 111,55.442 h 116.26 v 46.527 H 3207.91 L 3069,440.641 Z M 2815.12,296.359 c 0,163.672 129.15,296.352 288.49,296.352 159.34,0 288.53,-132.68 288.53,-296.352 C 3392.14,132.68 3262.95,0 3103.61,0 2944.27,0 2815.12,132.68 2815.12,296.359" /><path
         id="path50"
         style="fill:#1f3862;fill-opacity:1;fill-rule:nonzero;stroke:none"
         d="m 3849.38,458.281 h -66.6 V 301.828 c 0,-24.648 -0.44,-33.758 1.33,-62.937 -8.88,15.05 -18.63,27.82 -30.63,45.597 l -117.27,173.793 h -69.25 v -318.39 h 66.16 V 293.16 c 0,28.75 -3.09,68.891 -3.09,68.891 0,0 19.55,-32.84 31.55,-50.18 0.4,-0.441 118.07,-171.98 118.07,-171.98 h 69.73 v 318.39" /><path
         id="path52"
         style="fill:#1f3862;fill-opacity:1;fill-rule:evenodd;stroke:none"
         d="m 4016.75,166.789 c 0.89,-14.57 1.73,-26.898 1.73,-26.898 h 51.11 c 0,0 -3.54,37.379 -3.54,65.679 v 129.551 c -27.1,8.231 -43.11,10.039 -68.89,10.039 -78.56,0 -125.65,-41.949 -125.65,-114.98 0,-60.18 30.23,-94.86 78.56,-94.86 26.22,0 52.03,10.961 66.68,31.469 m -7.1,80.731 c 0,-33.758 -20.88,-56.559 -45.33,-56.559 -19.55,0 -32.43,13.687 -32.43,39.219 0,38.34 20.91,61.14 52.43,61.14 7.06,0 15.09,-0.441 25.33,-2.73 v -41.07" /><path
         id="path54"
         style="fill:#1f3862;fill-opacity:1;fill-rule:nonzero;stroke:none"
         d="m 4178.37,297.27 h 58.66 v 43.359 h -58.66 v 50.582 h -59.05 v -50.582 h -32 V 297.27 h 32 v -97.192 c 0,-50.148 28.86,-66.558 69.73,-66.558 21.28,0 38.14,5.449 51.95,14.57 v 45.16 c -14.65,-8.668 -25.77,-13.25 -36.01,-13.25 -17.26,0 -26.62,8.68 -26.62,36.539 v 80.731" /><path
         id="path56"
         style="fill:#1f3862;fill-opacity:1;fill-rule:evenodd;stroke:none"
         d="m 4338.05,400.82 c 0,19.59 -16.42,36.008 -34.64,36.008 -20.4,0 -35.49,-15.976 -35.49,-35.09 0,-19.187 15.98,-34.679 35.49,-34.679 19.11,0 34.64,15.05 34.64,33.761 m -65.27,-260.91 h 60.37 v 200.692 h -60.37 V 139.91" /><path
         id="path58"
         style="fill:#1f3862;fill-opacity:1;fill-rule:evenodd;stroke:none"
         d="m 4564.28,240.699 c 0,68.41 -40.83,105.821 -102.57,105.821 -62.59,0 -103.05,-38.739 -103.05,-105.821 0,-68.847 41.79,-107.187 103.05,-107.187 61.3,0 102.57,38.34 102.57,107.187 m -59.94,0 c 0,-34.199 -15.53,-53.347 -42.63,-53.347 -27.1,0 -41.27,19.589 -41.27,53.347 0,32.403 14.65,51.992 41.27,51.992 25.73,0 42.63,-19.152 42.63,-51.992" /><path
         id="path60"
         style="fill:#1f3862;fill-opacity:1;fill-rule:nonzero;stroke:none"
         d="m 4645.35,226.109 c 0,59.743 32.84,66.121 40.43,66.121 8.43,0 26.17,-1.808 26.17,-34.199 V 139.922 h 61.75 v 129.066 c 0,47.453 -29.35,77.082 -67.09,77.082 -22.64,0 -46.16,-9.121 -64.83,-27.82 -1.73,10.512 -2.65,13.691 -6.22,22.359 h -59.02 c 5.74,-14.168 9.76,-41.07 9.76,-64.32 V 139.922 h 59.05 v 86.187" /><path
         id="path62"
         style="fill:#1f3862;fill-opacity:1;fill-rule:evenodd;stroke:none"
         d="m 4944.03,166.789 c 0.88,-14.57 1.76,-26.898 1.76,-26.898 h 51.07 c 0,0 -3.57,37.379 -3.57,65.679 v 129.551 c -27.06,8.231 -43.04,10.039 -68.77,10.039 -78.65,0 -125.7,-41.949 -125.7,-114.98 0,-60.18 30.19,-94.86 78.61,-94.86 26.21,0 51.94,10.961 66.6,31.469 m -7.15,80.731 c 0,-33.758 -20.83,-56.559 -45.28,-56.559 -19.55,0 -32.4,13.687 -32.4,39.219 0,38.34 20.88,61.14 52.39,61.14 7.11,0 15.09,-0.441 25.29,-2.73 v -41.07" /><path
         id="path64"
         style="fill:#1f3862;fill-opacity:1;fill-rule:nonzero;stroke:none"
         d="m 5030.74,139.898 h 60.8594 V 458.3 H 5030.74 Z" /><path
         id="path66"
         style="fill:#1f3862;fill-opacity:1;fill-rule:evenodd;stroke:none"
         d="m 5438.55,285.41 c 59.05,1.36 95.94,32.84 95.94,81.649 0,60.222 -40.9,92.14 -137.25,92.14 -12.45,0 -69.26,-1.371 -94.55,-3.211 V 139.922 h 71.46 v 127.699 l 96.39,-127.699 h 84.79 z m -64.4,120.43 c 9.32,0.93 17.3,1.371 22.68,1.371 43.96,0 63.47,-15.063 63.47,-41.992 0,-24.61 -23.52,-40.149 -61.26,-40.149 -4.45,0 -24.89,1.852 -24.89,1.852 v 78.918" /><path
         id="path68"
         style="fill:#1f3862;fill-opacity:1;fill-rule:evenodd;stroke:none"
         d="m 5691.09,166.789 c 0.89,-14.57 1.81,-26.898 1.81,-26.898 h 51.03 c 0,0 -3.54,37.379 -3.54,65.679 v 129.551 c -27.1,8.231 -43.07,10.039 -68.85,10.039 -78.56,0 -125.65,-41.949 -125.65,-114.98 0,-60.18 30.19,-94.86 78.64,-94.86 26.14,0 51.91,10.961 66.56,31.469 m -7.1,80.731 c 0,-33.758 -20.88,-56.559 -45.29,-56.559 -19.55,0 -32.43,13.687 -32.43,39.219 0,38.34 20.87,61.14 52.43,61.14 7.06,0 15.05,-0.441 25.29,-2.73 v -41.07" /><path
         id="path70"
         style="fill:#1f3862;fill-opacity:1;fill-rule:evenodd;stroke:none"
         d="m 5846.87,400.82 c 0,19.59 -16.42,36.008 -34.65,36.008 -20.39,0 -35.49,-15.976 -35.49,-35.09 0,-19.187 15.98,-34.679 35.49,-34.679 19.11,0 34.65,15.05 34.65,33.761 m -65.24,-260.91 h 60.38 v 200.692 h -60.38 V 139.91" /><path
         id="path72"
         style="fill:#1f3862;fill-opacity:1;fill-rule:nonzero;stroke:none"
         d="m 5879.66,139.898 h 60.8203 V 458.3 H 5879.66 Z" /><path
         id="path74"
         style="fill:#1f3862;fill-opacity:1;fill-rule:nonzero;stroke:none"
         d="M 1241.46,1026.05 H 7468.1" /><path
         id="path76"
         style="fill:none;stroke:#1f3862;stroke-width:20;stroke-linecap:butt;stroke-linejoin:miter;stroke-miterlimit:10;stroke-dasharray:none;stroke-opacity:1"
         d="M 1241.46,1026.05 H 7468.1" /></g></g></svg>