<svg id="Layer_1" data-name="Layer 1" xmlns="http://www.w3.org/2000/svg" viewBox="0 0 640.68 186.39"><title>Taiko_Logo_Black</title><path d="M109.74,48.21H75.55V164.46H47.13V48.21H12.94V21.93h96.8Z"/><path d="M156.54,131.34l-12,33.12H114.66L167.87,21.93h33.55l53.21,142.53H224.5l-11.76-33.12Zm28-79.07-18.81,52.57h37.61Z"/><path d="M308.91,164.46H280.48V21.93h28.43Z"/><path d="M465.12,164.46H431.35l-40.6-61.33-12,13v48.29H350.36V21.93h28.42V77.49l51.51-55.56H466.4L410.2,82.4Z"/><path d="M627.74,93.3c0,40.61-34,74.58-75,74.58A75.2,75.2,0,0,1,477.3,92.23c0-39.74,34.61-73.72,75.22-73.72C593.76,18.51,627.74,52.27,627.74,93.3Zm-121.59.64c0,25.65,21.15,47.23,46.37,47.23,25.43,0,46.37-21.58,46.37-47.87,0-26.92-20.73-48.08-46.59-48.08S506.15,66.8,506.15,93.94Z"/></svg>