<?xml version="1.0" encoding="UTF-8" standalone="no"?>
<!-- Created with Inkscape (http://www.inkscape.org/) -->

<svg
   xmlns:dc="http://purl.org/dc/elements/1.1/"
   xmlns:cc="http://creativecommons.org/ns#"
   xmlns:rdf="http://www.w3.org/1999/02/22-rdf-syntax-ns#"
   xmlns:svg="http://www.w3.org/2000/svg"
   xmlns="http://www.w3.org/2000/svg"
   xmlns:sodipodi="http://sodipodi.sourceforge.net/DTD/sodipodi-0.dtd"
   xmlns:inkscape="http://www.inkscape.org/namespaces/inkscape"
   width="301.80795"
   height="141.16043"
   viewBox="0 0 79.853354 37.348696"
   version="1.1"
   id="svg8"
   inkscape:version="0.92.0 r15299"
   sodipodi:docname="Tata_Consultancy_ServicesCR.svg">
  <defs
     id="defs2">
    <inkscape:perspective
       id="perspective70"
       inkscape:persp3d-origin="625.00001 : 193.74999 : 1"
       inkscape:vp_z="1250 : 290.62498 : 1"
       inkscape:vp_y="0 : 999.99993 : 0"
       inkscape:vp_x="0 : 290.62498 : 1"
       sodipodi:type="inkscape:persp3d" />
  </defs>
  <sodipodi:namedview
     id="base"
     pagecolor="#ffffff"
     bordercolor="#666666"
     borderopacity="1.0"
     inkscape:pageopacity="0.0"
     inkscape:pageshadow="2"
     inkscape:zoom="0.47482464"
     inkscape:cx="149.90393"
     inkscape:cy="69.58046"
     inkscape:document-units="mm"
     inkscape:current-layer="layer1"
     showgrid="false"
     fit-margin-top="0"
     fit-margin-left="0"
     fit-margin-right="0"
     fit-margin-bottom="0"
     units="px"
     inkscape:window-width="1280"
     inkscape:window-height="744"
     inkscape:window-x="-4"
     inkscape:window-y="-4"
     inkscape:window-maximized="1" />
  <metadata
     id="metadata5">
    <rdf:RDF>
      <cc:Work
         rdf:about="">
        <dc:format>image/svg+xml</dc:format>
        <dc:type
           rdf:resource="http://purl.org/dc/dcmitype/StillImage" />
        <dc:title></dc:title>
      </cc:Work>
    </rdf:RDF>
  </metadata>
  <g
     inkscape:label="Layer 1"
     inkscape:groupmode="layer"
     id="layer1"
     transform="translate(-65.337919,-129.56114)">
    <g
       id="g138"
       transform="translate(0.26458152,-0.26457561)">
      <path
         style="opacity:1;fill:#5f68c3;stroke-width:0.079375"
         id="path5"
         d="m 98.238805,131.44906 c 1.708944,-0.78502 3.571085,-1.20094 5.440365,-1.35176 0.87154,-0.003 1.74307,0.0119 2.61461,-0.007 2.82496,0.21511 5.67531,1.05569 7.93829,2.80829 0.8763,0.72152 1.69942,1.55972 2.20425,2.58842 -3.28454,-0.71755 -6.62305,-1.25572 -9.98855,-1.35493 -0.38656,-0.0262 -0.86281,0.23653 -0.85408,0.66675 0.0103,3.78777 0,7.57475 0.002,11.36253 -0.37703,0.0159 -0.75327,0.008 -1.1303,0.0151 -7.9e-4,-3.81873 0.004,-7.63746 0.0175,-11.4554 -0.046,-0.40243 -0.50641,-0.63103 -0.87868,-0.58738 -3.37105,0.1143 -6.722267,0.62865 -10.006805,1.3843 0.312738,-0.65325 0.757238,-1.23348 1.267619,-1.74387 0.946944,-1.00012 2.125663,-1.75577 3.374231,-2.32489 z"
         inkscape:connector-curvature="0" />
      <path
         style="opacity:1;fill:#5f68c3;stroke-width:0.079375"
         id="path7"
         d="m 93.108006,136.77115 c 2.859087,-0.55959 5.755481,-0.96361 8.666164,-1.12156 0.44767,-0.0294 0.97075,0.21669 1.09696,0.67627 0.11748,0.68501 -0.0135,1.38192 -0.14684,2.05502 -0.50642,2.46221 -1.01362,4.92363 -1.51686,7.38664 -1.995487,-0.45403 -3.944143,-1.26286 -5.541168,-2.56143 -0.897732,-0.74851 -1.694657,-1.64783 -2.189163,-2.71542 -0.5461,-1.14777 -0.696119,-2.48762 -0.369093,-3.71952 z"
         inkscape:connector-curvature="0" />
      <path
         style="opacity:1;fill:#5f68c3;stroke-width:0.079375"
         id="path9"
         d="m 107.84636,135.72182 c 0.26273,-0.11272 0.55324,-0.0675 0.83026,-0.054 2.69002,0.16113 5.3594,0.55563 8.00973,1.03108 0.0937,0.0318 0.25638,0.0191 0.27305,0.15002 0.32067,1.26683 0.13176,2.6416 -0.46117,3.80048 -0.60007,1.18507 -1.54702,2.16455 -2.61302,2.94243 -1.04934,0.73263 -2.20425,1.31683 -3.41948,1.72085 -0.51594,0.18494 -1.05092,0.3048 -1.57242,0.46831 -0.40878,-2.07804 -0.84772,-4.15052 -1.27238,-6.22538 -0.18494,-1.01997 -0.50959,-2.03914 -0.41592,-3.08769 0.0143,-0.36195 0.32226,-0.62865 0.64135,-0.74612 z"
         inkscape:connector-curvature="0" />
      <path
         style="opacity:1;fill:#5f68c3;stroke-width:0.079375"
         id="path11"
         d="m 88.951137,150.3157 c 2.585244,-0.0341 5.172075,-0.007 7.757318,-0.0127 0.0032,0.77867 0.0127,1.55734 -0.0056,2.33601 -0.7493,7.9e-4 -1.4986,-0.002 -2.2479,-0.006 -0.0127,1.89707 -0.004,3.79413 -0.0056,5.69119 -1.083469,-0.002 -2.167731,-0.002 -3.2512,0 0.03493,-1.90262 0.0056,-3.80524 0.01826,-5.70785 -0.75565,0.0476 -1.512887,0.006 -2.269331,0.0246 0.01429,-0.7747 0.0079,-1.55019 0.004,-2.32569 z"
         inkscape:connector-curvature="0" />
      <path
         style="opacity:1;fill:#5f68c3;stroke-width:0.079375"
         id="path13"
         d="m 98.908731,150.44985 c 0.03096,-0.20003 0.253206,-0.1405 0.396081,-0.14923 1.020758,0.0127 2.042318,-0.0214 3.062288,0.0127 1.02156,2.667 2.05502,5.32924 3.05911,8.00338 -1.05013,0.0175 -2.09947,-0.009 -3.1496,0.019 -0.53499,-1.58591 -1.07394,-3.16944 -1.61766,-4.75218 -0.52546,1.58115 -1.058863,3.15992 -1.611313,4.73075 -1.052513,0.0246 -2.105025,-0.0119 -3.156744,0.023 1.004887,-2.62969 2.007394,-5.26018 3.017838,-7.88749 z"
         inkscape:connector-curvature="0" />
      <path
         style="opacity:1;fill:#5f68c3;stroke-width:0.079375"
         id="path15"
         d="m 104.62452,150.303 c 2.58128,-0.002 5.16335,-0.003 7.74462,0 0.0199,0.77312 8e-4,1.54702 0.0127,2.32014 -0.75485,0.0302 -1.50971,0.006 -2.26457,0.0159 -0.002,1.89865 -0.01,3.7973 0.007,5.69595 -1.08109,-0.027 -2.16218,-7.9e-4 -3.24247,-0.0175 0.009,-1.8931 0.004,-3.7854 0.004,-5.67849 -0.75962,-0.003 -1.51845,-7.9e-4 -2.27806,0.002 0.0278,-0.77946 0.006,-1.55892 0.0167,-2.33839 z"
         inkscape:connector-curvature="0" />
      <path
         style="opacity:1;fill:#5f68c3;stroke-width:0.079375"
         id="path17"
         d="m 114.63768,150.29983 c 1.1303,0.002 2.25981,-0.005 3.39011,0.006 1.0287,2.66779 2.06057,5.33558 3.06149,8.0137 -1.04616,0.0127 -2.09312,-0.009 -3.13928,0.0143 -0.54451,-1.56607 -1.06124,-3.14245 -1.61608,-4.70455 -0.56594,1.55337 -1.06362,3.13134 -1.61607,4.68947 -1.05648,0.0191 -2.11296,-0.0175 -3.16865,0.0214 1.03664,-2.67732 2.05026,-5.36337 3.08848,-8.03989 z"
         inkscape:connector-curvature="0" />
      <path
         style="opacity:1;fill:#5f68c3;stroke-width:0.079375"
         id="path19"
         d="m 84.121168,163.19589 c 0.638969,-0.42704 1.47955,-0.43498 2.189162,-0.19209 -0.02381,0.20558 -0.07779,0.4056 -0.146843,0.60087 -0.517525,-0.15399 -1.138238,-0.23257 -1.6002,0.11033 -0.623888,0.47942 -0.655638,1.47875 -0.223044,2.0947 0.429419,0.52705 1.221581,0.51118 1.810544,0.30004 0.06668,0.19606 0.115887,0.39688 0.157162,0.60008 -0.435769,0.1643 -0.907256,0.127 -1.363662,0.12462 -0.673894,-0.0111 -1.306513,-0.47864 -1.534319,-1.10967 -0.327819,-0.87233 -0.100806,-2.00025 0.7112,-2.52888 z"
         inkscape:connector-curvature="0" />
      <path
         style="opacity:1;fill:#5f68c3;stroke-width:0.079375"
         id="path21"
         d="m 87.919262,162.8887 c 0.624681,-0.14763 1.337469,0.0302 1.768475,0.5207 0.437356,0.4826 0.542131,1.17952 0.461168,1.80658 -0.0762,0.61516 -0.423862,1.2319 -1.008062,1.48987 -0.369888,0.1524 -0.788194,0.26511 -1.185069,0.15716 -0.512762,-0.10477 -0.989012,-0.4318 -1.223169,-0.90646 -0.373856,-0.762 -0.327818,-1.73752 0.185738,-2.42491 0.240506,-0.32861 0.605631,-0.55324 1.000919,-0.64294 m 0.07382,0.62151 c -0.380206,0.13256 -0.600868,0.52149 -0.669925,0.89932 -0.115093,0.55324 -0.04366,1.20253 0.369094,1.62163 0.4064,0.39529 1.159669,0.2921 1.440656,-0.20399 0.338932,-0.58103 0.337344,-1.36208 -0.01032,-1.93913 -0.2159,-0.38815 -0.726282,-0.51832 -1.129507,-0.37783 z"
         inkscape:connector-curvature="0" />
      <path
         style="opacity:1;fill:#5f68c3;stroke-width:0.079375"
         id="path23"
         d="m 95.179693,162.98872 c 0.536575,-0.23019 1.161256,-0.16987 1.693069,0.0445 -0.06191,0.20875 -0.122238,0.41751 -0.177007,0.62865 -0.360362,-0.18812 -0.799306,-0.27067 -1.185068,-0.11272 -0.262732,0.11034 -0.308769,0.52388 -0.07144,0.6866 0.408781,0.30004 0.967581,0.35877 1.316038,0.7493 0.445293,0.46593 0.3048,1.30572 -0.2286,1.64385 -0.365919,0.2675 -0.842169,0.19844 -1.266825,0.20955 -0.284163,0.0151 -0.551656,-0.0913 -0.800894,-0.21431 0.05239,-0.20161 0.103981,-0.40322 0.157162,-0.60404 0.440532,0.18574 0.969169,0.3421 1.425576,0.12303 0.334962,-0.17066 0.265112,-0.71041 -0.06509,-0.84534 -0.47625,-0.23972 -1.077119,-0.37227 -1.353344,-0.8763 -0.274637,-0.53102 0.02699,-1.20174 0.556419,-1.43272 z"
         inkscape:connector-curvature="0" />
      <path
         style="opacity:1;fill:#5f68c3;stroke-width:0.079375"
         id="path25"
         d="m 114.52417,163.19271 c 0.64135,-0.42862 1.47638,-0.42386 2.18996,-0.19288 -0.0357,0.2032 -0.0881,0.40402 -0.14367,0.60325 -0.5199,-0.15002 -1.1422,-0.23416 -1.60575,0.11033 -0.44768,0.31194 -0.55801,0.90884 -0.49451,1.41843 0.0492,0.42863 0.30956,0.85725 0.72628,1.01362 0.43974,0.1651 0.93107,0.10478 1.37081,-0.0325 0.0452,0.20082 0.0929,0.40163 0.1389,0.60245 -0.41275,0.14685 -0.85407,0.12303 -1.28428,0.12224 -0.66437,0.0198 -1.31287,-0.40322 -1.57242,-1.01362 -0.39132,-0.88662 -0.17225,-2.08597 0.67468,-2.63128 z"
         inkscape:connector-curvature="0" />
      <path
         style="opacity:1;fill:#5f68c3;stroke-width:0.079375"
         id="path27"
         d="m 122.39738,162.94982 c 0.51514,-0.18732 1.09458,-0.11668 1.59623,0.0825 -0.0627,0.21035 -0.12541,0.4199 -0.18177,0.63183 -0.35322,-0.1786 -0.78263,-0.27385 -1.16205,-0.127 -0.28098,0.11827 -0.3421,0.54292 -0.0817,0.71596 0.48974,0.32147 1.19777,0.39449 1.47478,0.97869 0.32147,0.64612 -0.14843,1.46368 -0.84296,1.57957 -0.54689,0.0429 -1.13189,0.0905 -1.63195,-0.18336 0.0595,-0.20558 0.11827,-0.41116 0.17939,-0.61595 0.41751,0.20161 0.91361,0.32623 1.36525,0.15954 0.29369,-0.11271 0.35957,-0.55721 0.13017,-0.76358 -0.24447,-0.21352 -0.57308,-0.2802 -0.85566,-0.42545 -0.33734,-0.15875 -0.6604,-0.43418 -0.72787,-0.81915 -0.11033,-0.51753 0.25321,-1.04537 0.73819,-1.21365 z"
         inkscape:connector-curvature="0" />
      <path
         style="opacity:1;fill:#5f68c3;stroke-width:0.079375"
         id="path29"
         d="m 136.4666,163.31098 c 0.65008,-0.54213 1.57401,-0.55245 2.35267,-0.32306 -0.0413,0.21114 -0.0913,0.42148 -0.14605,0.63024 -0.49053,-0.16827 -1.06997,-0.23495 -1.53114,0.0484 -0.68183,0.42148 -0.74216,1.43986 -0.34687,2.07724 0.40958,0.60405 1.26127,0.57388 1.88119,0.3683 0.0405,0.19606 0.0825,0.39291 0.12224,0.59055 -0.43736,0.18653 -0.92075,0.12938 -1.38272,0.13018 -0.70961,-0.0119 -1.34223,-0.55245 -1.54701,-1.21841 -0.23495,-0.79375 -0.0699,-1.76212 0.59769,-2.30346 z"
         inkscape:connector-curvature="0" />
      <path
         style="opacity:1;fill:#5f68c3;stroke-width:0.079375"
         id="path31"
         d="m 142.83803,163.00459 c 0.53658,-0.25162 1.17872,-0.1905 1.71688,0.0278 -0.0595,0.21035 -0.11906,0.42069 -0.17383,0.63262 -0.35639,-0.18415 -0.78899,-0.27146 -1.17396,-0.12382 -0.2659,0.1143 -0.3294,0.53895 -0.0778,0.70326 0.43259,0.29686 1.01123,0.36592 1.35652,0.79296 0.21034,0.21272 0.17462,0.52943 0.17303,0.80327 0.0183,0.36036 -0.24606,0.66437 -0.53737,0.83979 -0.34845,0.20955 -0.77231,0.14525 -1.15887,0.15716 -0.28893,0.0135 -0.56436,-0.0818 -0.81518,-0.21352 0.05,-0.20002 0.10001,-0.40005 0.15002,-0.59928 0.43577,0.17383 0.93821,0.31909 1.3962,0.14367 0.32147,-0.1524 0.33497,-0.65564 0.0286,-0.83264 -0.46276,-0.27226 -1.06839,-0.36434 -1.37795,-0.85011 -0.3302,-0.51991 -0.0373,-1.22873 0.49371,-1.48114 z"
         inkscape:connector-curvature="0" />
      <path
         style="opacity:1;fill:#5f68c3;stroke-width:0.079375"
         id="path33"
         d="m 65.353743,162.86727 c 1.292225,0 2.58445,0 3.876675,8e-4 -0.0087,0.38893 -0.0095,0.77787 -0.0063,1.1676 -0.375444,0.0206 -0.750888,0.0198 -1.126331,0.0175 -0.004,0.95091 -0.0016,1.90261 7.93e-4,2.85432 -0.5461,-0.0437 -1.093787,-0.0151 -1.639887,-0.023 0.02302,-0.94853 -0.0016,-1.89785 0.01667,-2.84639 -0.378619,0.0175 -0.758032,0.0167 -1.137444,0.0143 v -0.1516 c 0.01191,-0.34449 0.01349,-0.68898 0.01587,-1.03347 z"
         inkscape:connector-curvature="0" />
      <path
         style="opacity:1;fill:#5f68c3;stroke-width:0.079375"
         id="path35"
         d="m 68.795443,166.8773 c 0.511969,-1.33826 1.012031,-2.68129 1.548606,-4.01003 0.559594,0.006 1.119188,-0.009 1.678781,0.0103 0.528638,1.32795 1.038225,2.66462 1.532732,4.00606 -0.525463,0.005 -1.050925,-0.0159 -1.5748,0.0262 -0.259557,-0.80327 -0.563563,-1.59226 -0.798513,-2.40347 -0.249237,0.79216 -0.519906,1.57797 -0.797719,2.3614 -0.528637,0.046 -1.059656,0.006 -1.589087,0.01 z"
         inkscape:connector-curvature="0" />
      <path
         style="opacity:1;fill:#5f68c3;stroke-width:0.079375"
         id="path37"
         d="m 73.131699,162.8768 c 1.294606,-0.0159 2.589213,-0.008 3.883819,-0.003 -0.0032,0.38894 -0.0063,0.77867 0.0048,1.1684 -0.375443,0.0119 -0.751681,0.0111 -1.127124,0.0143 -0.0032,0.92631 0.0048,1.85341 -0.0071,2.78051 -0.538163,-0.003 -1.075532,-0.002 -1.6129,0 -0.0071,-0.93028 -0.01429,-1.86055 0.0016,-2.79083 -0.381,0.01 -0.762,0.005 -1.143,0.0111 0.0071,-0.3937 0.0056,-0.7874 0,-1.1803 z"
         inkscape:connector-curvature="0" />
      <path
         style="opacity:1;fill:#5f68c3;stroke-width:0.079375"
         id="path39"
         d="m 76.613087,166.83364 c 0.48895,-1.32635 1.0033,-2.64319 1.508918,-3.96319 0.567532,0.002 1.135857,-0.0199 1.703388,0.0143 0.504825,1.31603 1.02235,2.62731 1.507331,3.95128 -0.52705,-0.002 -1.0541,-0.002 -1.58115,8e-4 -0.261143,-0.75962 -0.511968,-1.52321 -0.786606,-2.27807 -0.254794,0.75883 -0.508794,1.51765 -0.767556,2.27489 -0.527844,0 -1.056481,0 -1.584325,0 z"
         inkscape:connector-curvature="0" />
      <path
         style="opacity:1;fill:#5f68c3;stroke-width:0.079375"
         id="path41"
         d="m 90.741043,162.91569 c 0.280194,-0.0135 0.560388,-0.0143 0.841375,-0.007 0.55245,0.94218 1.165225,1.85182 1.624012,2.84559 -0.05874,-0.94774 -0.04048,-1.89785 -0.04286,-2.84718 0.225425,-0.002 0.45085,-0.003 0.676275,0 0.04842,1.30016 -7.94e-4,2.6035 0.02699,3.90446 -0.259556,0.006 -0.519112,0.01 -0.778668,0.0103 -0.5588,-1.02632 -1.254125,-1.98359 -1.697831,-3.06864 0.06826,1.02155 0.05239,2.04629 0.03889,3.06943 -0.229393,-0.002 -0.459581,-0.002 -0.688975,7.9e-4 0.0016,-1.30254 0.004,-2.60508 7.94e-4,-3.90763 z"
         inkscape:connector-curvature="0" />
      <path
         style="opacity:1;fill:#5f68c3;stroke-width:0.079375"
         id="path43"
         d="m 97.615712,162.90696 c 0.244475,-0.003 0.489744,-0.002 0.734218,0.003 0.03334,0.81756 -0.0063,1.63671 0.02381,2.45506 0.01746,0.30004 0.10795,0.63739 0.377031,0.80884 0.290513,0.16113 0.6985,0.12858 0.935831,-0.1143 0.219869,-0.2548 0.241301,-0.6096 0.246857,-0.93028 -7.94e-4,-0.73819 -0.004,-1.47637 -0.0016,-2.21536 0.248451,-0.01 0.497691,-0.0111 0.747721,-0.007 0.007,0.76597 0.008,1.53114 0.004,2.29711 -0.006,0.51991 -0.17145,1.08506 -0.60484,1.40812 -0.552457,0.37068 -1.328744,0.38814 -1.882782,0.0111 -0.422275,-0.30321 -0.567531,-0.84693 -0.581025,-1.34144 -0.01111,-0.79137 -7.94e-4,-1.58353 7.94e-4,-2.3749 z"
         inkscape:connector-curvature="0" />
      <path
         style="opacity:1;fill:#5f68c3;stroke-width:0.079375"
         id="path45"
         d="m 101.44873,162.91649 c 0.24924,-0.0127 0.49927,-0.0143 0.7493,-0.0103 0.006,1.0922 7.9e-4,2.1844 0.003,3.2766 0.52705,0 1.05489,-0.002 1.58194,0.003 0.006,0.20558 0.0111,0.41196 0.0135,0.61754 -0.78343,0.0341 -1.56686,0.005 -2.35029,0.0198 0.006,-1.30254 0.003,-2.60429 0.002,-3.90683 z"
         inkscape:connector-curvature="0" />
      <path
         style="opacity:1;fill:#5f68c3;stroke-width:0.079375"
         id="path47"
         d="m 103.35532,162.92045 c 0.99219,-0.0294 1.98517,-0.0151 2.97735,-0.0127 0.002,0.21432 0.002,0.42942 -7.9e-4,0.64453 -0.37544,-0.0143 -0.75009,-0.009 -1.12474,-0.0119 0.0191,1.08823 0.002,2.17805 0.0103,3.26708 -0.25639,0.0111 -0.51277,0.0167 -0.76915,0.0191 0.0349,-1.09538 0.002,-2.19234 0.0214,-3.28771 -0.36909,0.005 -0.73818,0.002 -1.10648,0.009 -0.005,-0.20955 -0.007,-0.41831 -0.008,-0.62707 z"
         inkscape:connector-curvature="0" />
      <path
         style="opacity:1;fill:#5f68c3;stroke-width:0.079375"
         id="path49"
         d="m 107.28438,162.92839 c 0.31274,-0.0421 0.62786,-0.0294 0.94139,-0.008 0.41195,1.30255 0.84852,2.59636 1.25889,3.8997 -0.26829,0 -0.53579,0 -0.80328,0 -0.11509,-0.3683 -0.22939,-0.7366 -0.3429,-1.1057 -0.40084,0.0167 -0.80248,0.0135 -1.20332,0.01 -0.11034,0.36116 -0.21987,0.72311 -0.32306,1.08664 -0.26591,0.006 -0.53261,0.0119 -0.79851,0.0167 0.4437,-1.29302 0.8374,-2.6027 1.27079,-3.8989 m -0.0111,2.2225 c 0.30797,-0.003 0.61674,-0.003 0.9263,-0.003 -0.15795,-0.52626 -0.33416,-1.04696 -0.47625,-1.57798 -0.13017,0.53261 -0.30241,1.05331 -0.45005,1.58115 z"
         inkscape:connector-curvature="0" />
      <path
         style="opacity:1;fill:#5f68c3;stroke-width:0.079375"
         id="path51"
         d="m 109.98392,162.91649 c 0.27385,-0.007 0.55087,-0.0326 0.82471,0.006 0.58976,0.93345 1.1938,1.87008 1.65021,2.88052 -0.0865,-0.96361 -0.0571,-1.9304 -0.054,-2.8956 0.22543,-0.002 0.45085,-0.002 0.67628,0.003 0.0341,1.29778 0.006,2.59715 0.0175,3.89572 -0.25559,0.0135 -0.51038,0.0183 -0.76518,0.0183 -0.56991,-0.9906 -1.19776,-1.95025 -1.69148,-2.98292 0.0413,0.99378 0.0429,1.98914 0.0349,2.98371 -0.23178,-0.004 -0.46355,-0.005 -0.69453,-0.002 0.002,-1.30175 0.002,-2.6035 0.002,-3.90604 z"
         inkscape:connector-curvature="0" />
      <path
         style="opacity:1;fill:#5f68c3;stroke-width:0.079375"
         id="path53"
         d="m 116.91495,162.91014 c 0.27146,-0.01 0.54372,-0.0103 0.81518,0.003 0.30163,0.55245 0.54372,1.13427 0.80248,1.70736 0.2802,-0.56198 0.5207,-1.143 0.80963,-1.70101 0.27146,-0.0222 0.54451,-0.0198 0.81756,-0.008 -0.36751,0.71914 -0.80407,1.39938 -1.18745,2.109 -0.096,0.14922 -0.0786,0.33178 -0.0841,0.50165 -0.003,0.43418 0.006,0.86915 -0.003,1.30413 -0.26035,-0.006 -0.5207,-0.008 -0.77947,7.9e-4 0.0246,-0.55562 0.0516,-1.12157 -0.007,-1.67402 -0.3683,-0.7612 -0.81756,-1.48034 -1.18348,-2.24313 z"
         inkscape:connector-curvature="0" />
      <path
         style="opacity:1;fill:#5f68c3;stroke-width:0.079375"
         id="path55"
         d="m 124.73894,162.90775 c 0.75645,-7.9e-4 1.51289,-0.0103 2.26933,0.003 0.0191,0.21273 0.0262,0.42624 0.0318,0.64056 -0.51911,-0.0413 -1.0406,-0.0119 -1.56051,-0.0222 0.006,0.31671 0.006,0.63421 0.006,0.95171 0.48498,-8e-4 0.96996,0.002 1.45574,0.003 0.004,0.21273 0.006,0.42545 0.005,0.63818 -0.48895,-0.0349 -0.9779,-0.0119 -1.46685,-0.0206 0.009,0.36195 0.007,0.7239 0.004,1.08585 0.53895,0.0183 1.07791,0.0111 1.61766,0.008 0.0135,0.2024 0.0198,0.4056 0.0222,0.6096 -0.7993,0.0333 -1.5994,0.002 -2.39871,0.0206 0.0246,-1.30571 0.002,-2.61143 0.0151,-3.91795 z"
         inkscape:connector-curvature="0" />
      <path
         style="opacity:1;fill:#5f68c3;stroke-width:0.079375"
         id="path57"
         d="m 127.69328,162.9657 c 0.47943,-0.0937 0.97234,-0.0984 1.45891,-0.0746 0.4572,0.0246 0.96997,0.2405 1.12633,0.70723 0.21432,0.5326 -0.0905,1.18348 -0.6342,1.36366 0.20637,0.10319 0.36989,0.2794 0.44847,0.49847 0.16907,0.44133 0.21431,0.92075 0.40084,1.35811 -0.26114,7.9e-4 -0.5207,0.002 -0.78026,0.002 -0.16668,-0.42307 -0.20399,-0.88662 -0.38735,-1.30175 -0.15557,-0.34687 -0.58975,-0.27464 -0.89693,-0.30083 0.0214,0.53023 0.004,1.06204 0.019,1.59306 -0.25877,0.004 -0.51753,0.0103 -0.7755,0.019 0.0492,-1.28747 0.008,-2.57652 0.0206,-3.86477 m 0.73581,0.49927 c 0.0175,0.39846 0.01,0.79772 0.0143,1.19697 0.30401,-0.007 0.64374,0.0492 0.91282,-0.13017 0.33655,-0.22146 0.31829,-0.81042 -0.0453,-0.99457 -0.27781,-0.11986 -0.58896,-0.0826 -0.88185,-0.0722 z"
         inkscape:connector-curvature="0" />
      <path
         style="opacity:1;fill:#5f68c3;stroke-width:0.079375"
         id="path59"
         d="m 130.62222,162.90775 c 0.27225,-0.004 0.54451,-0.004 0.81756,8e-4 0.29686,1.03822 0.63976,2.06295 0.90091,3.1115 0.26193,-1.05251 0.61118,-2.08201 0.95805,-3.10912 0.25638,-0.0103 0.51356,-0.01 0.77073,-0.002 -0.42227,1.30731 -0.90011,2.59636 -1.32953,3.90208 -0.2921,0.008 -0.5842,0.0111 -0.8763,0.0135 -0.3675,-1.31921 -0.83502,-2.60906 -1.24142,-3.91716 z"
         inkscape:connector-curvature="0" />
      <path
         style="opacity:1;fill:#5f68c3;stroke-width:0.079375"
         id="path61"
         d="m 134.45286,162.9141 c 0.24923,-0.0103 0.49847,-0.0111 0.7493,-0.007 -8e-4,1.30572 0.0103,2.61064 -0.008,3.91636 -0.24845,-0.003 -0.4961,-0.003 -0.74375,0 8e-4,-1.30333 0.002,-2.60667 0.002,-3.90922 z"
         inkscape:connector-curvature="0" />
      <path
         style="opacity:1;fill:#5f68c3;stroke-width:0.079375"
         id="path63"
         d="m 139.34712,162.92204 c 0.75962,-0.0341 1.52003,-0.0119 2.27965,-0.0151 0.0198,0.21273 0.027,0.42624 0.0325,0.64056 -0.51911,-0.0341 -1.03981,-0.01 -1.55972,-0.0183 0.003,0.31829 0.005,0.63659 0.006,0.95488 0.48578,-0.004 0.97076,-0.002 1.45653,8e-4 0.002,0.21193 0.002,0.42545 0.002,0.63817 -0.48816,-0.0365 -0.9779,-0.0135 -1.46606,-0.0198 0.005,0.36274 0.006,0.72469 0.003,1.08664 0.54055,0.0135 1.08109,0.008 1.62243,0.007 0.008,0.2032 0.0143,0.4072 0.0175,0.61199 -0.79851,0.023 -1.59782,0.002 -2.39633,0.0151 0.007,-1.30096 0.0103,-2.60112 0.002,-3.90208 z"
         inkscape:connector-curvature="0" />
    </g>
  </g>
</svg>
