<svg xmlns="http://www.w3.org/2000/svg" xmlns:xlink="http://www.w3.org/1999/xlink" viewBox="0 0 66 65" fill="#fff" fill-rule="evenodd" stroke="#000" stroke-linecap="round" stroke-linejoin="round"><use xlink:href="#B" x=".5" y=".5"/><defs><linearGradient id="A" x1="21.40%" y1="5.56%" x2="76.17%" y2="100.37%"><stop offset="0%" stop-opacity=".2"/><stop offset="79%" stop-opacity=".05"/></linearGradient></defs><symbol id="B" overflow="visible"><g stroke="none" fill-rule="nonzero"><path d="M32 64c14 0 21.82 0 26.9-5.08S64 46 64 32s0-21.8-5.1-26.88S46 0 32 0 10.18 0 5.1 5.12 0 18 0 32s0 21.8 5.1 26.88S18 64 32 64z" fill="#ef3939"/><path d="M52.82 20.178C48.53 12.752 40.607 8.177 32.03 8.175A24.01 24.01 0 0 0 11.237 20.17c-4.287 7.428-4.287 16.578 0 24.007l.138.24 11.28 19.54h9.18a152.44 152.44 0 0 0 15.321-.439c5.1-.56 8.76-1.822 11.6-4.637 4.12-4.12 4.9-10 5.06-19.56z" fill="url(#A)"/><path d="M48.86 15.08A24 24 0 0 0 7.859 32.02 24 24 0 0 0 48.86 48.96c9.332-9.366 9.332-24.514 0-33.88zM47.42 26.1L35.56 46.72a4 4 0 0 1-3.26 2.16 3.78 3.78 0 0 1-3.76-2L21.1 34l-4.54-8a4 4 0 0 1 3.24-6 3.82 3.82 0 0 1 3.66 2l3.32 5.76 2.4 4.14a6.26 6.26 0 0 0 5.24 3.24 6.38 6.38 0 0 0 6.72-5.68v-.66a6.7 6.7 0 0 0-.68-2.98 4 4 0 0 1 4.638-5.622A4 4 0 0 1 48 23.42a4.16 4.16 0 0 1-.58 2.68z"/></g></symbol></svg>